<?xml version="1.0" standalone="no"?>
<!DOCTYPE svg PUBLIC "-//W3C//DTD SVG 20010904//EN"
 "http://www.w3.org/TR/2001/REC-SVG-20010904/DTD/svg10.dtd">
<svg version="1.0" xmlns="http://www.w3.org/2000/svg"
 width="512.000000pt" height="512.000000pt" viewBox="0 0 512.000000 512.000000"
 preserveAspectRatio="xMidYMid meet">
<metadata>
Created by potrace 1.14, written by Peter Selinger 2001-2017
</metadata>
<g transform="translate(0.000000,512.000000) scale(0.100000,-0.100000)"
fill="#000000" stroke="none">
<path d="M416 4538 c-115 -277 -218 -530 -229 -563 -16 -47 -21 -87 -21 -185
0 -111 3 -134 28 -205 41 -118 80 -181 170 -271 131 -131 282 -194 467 -194
191 0 340 61 475 195 90 89 141 171 173 280 12 40 60 351 111 725 50 360 93
670 96 688 l6 32 -534 0 -533 0 -209 -502z"/>
<path d="M2025 5018 c-2 -13 -39 -270 -82 -573 -88 -629 -94 -719 -55 -845 58
-185 189 -338 361 -420 98 -47 145 -55 311 -55 166 0 213 8 311 55 83 40 138
81 206 154 73 78 123 164 154 266 39 128 34 218 -54 845 -43 303 -80 560 -82
573 l-5 22 -530 0 -530 0 -5 -22z"/>
<path d="M3434 5008 c3 -18 46 -327 96 -686 49 -359 95 -674 101 -700 22 -94
84 -205 159 -285 133 -142 273 -207 465 -215 80 -3 129 1 180 12 194 45 363
180 448 357 80 164 96 333 49 486 -10 32 -113 284 -228 561 l-209 502 -533 0
-534 0 6 -32z"/>
<path d="M800 1640 l0 -1239 -348 -3 -349 -3 -37 -29 c-88 -66 -88 -186 0
-252 l37 -29 2457 0 2457 0 37 29 c88 66 88 186 0 252 l-37 29 -349 3 -348 3
0 1239 0 1240 -1760 0 -1760 0 0 -1240z m1456 454 c53 -39 69 -71 69 -134 0
-63 -16 -95 -69 -134 -26 -20 -42 -21 -400 -24 l-372 -3 -34 23 c-53 36 -80
83 -80 138 0 55 27 102 80 138 l34 23 372 -3 c358 -3 374 -4 400 -24z m1161
-79 c175 -55 299 -182 359 -365 16 -50 18 -112 22 -652 l3 -598 -541 0 -541 0
4 602 c4 664 1 633 69 761 117 220 385 328 625 252z"/>
</g>
</svg>
